<svg width="32" height="32" viewBox="0 0 32 32" fill="none" xmlns="http://www.w3.org/2000/svg">
<g clip-path="url(#clip0_204_16)">
<path d="M19.375 32H7.5C3.3645 32 0 28.6355 0 24.5V7.5C0 3.3645 3.3645 0 7.5 0H24.5C28.6355 0 32 3.3645 32 7.5V19.4688C32 20.1591 31.4404 20.7188 30.75 20.7188C30.0596 20.7188 29.5 20.1591 29.5 19.4688V7.5C29.5 4.743 27.257 2.5 24.5 2.5H7.5C4.743 2.5 2.5 4.743 2.5 7.5V24.5C2.5 27.257 4.743 29.5 7.5 29.5H19.375C20.0654 29.5 20.625 30.0596 20.625 30.75C20.625 31.4404 20.0654 32 19.375 32ZM25.75 7.875C25.75 7.18463 25.1904 6.625 24.5 6.625H13.0625C12.3721 6.625 11.8125 7.18463 11.8125 7.875C11.8125 8.56538 12.3721 9.125 13.0625 9.125H24.5C25.1904 9.125 25.75 8.56538 25.75 7.875ZM25.75 12.875C25.75 12.1846 25.1904 11.625 24.5 11.625H7.5C6.80963 11.625 6.25 12.1846 6.25 12.875C6.25 13.5654 6.80963 14.125 7.5 14.125H24.5C25.1904 14.125 25.75 13.5654 25.75 12.875ZM13.25 17.875C13.25 17.1846 12.6904 16.625 12 16.625H7.5C6.80963 16.625 6.25 17.1846 6.25 17.875C6.25 18.5654 6.80963 19.125 7.5 19.125H12C12.6904 19.125 13.25 18.5654 13.25 17.875ZM6.25 7.75C6.25 8.61294 6.94956 9.3125 7.8125 9.3125C8.67544 9.3125 9.375 8.61294 9.375 7.75C9.375 6.88706 8.67544 6.1875 7.8125 6.1875C6.94956 6.1875 6.25 6.88706 6.25 7.75ZM30.6637 30.6636C32.4426 28.8848 32.4426 25.9903 30.6637 24.2113L26.2819 19.8296C25.0154 18.5631 23.4177 17.7082 21.6615 17.3571L18.12 16.6493C17.7104 16.5672 17.2866 16.6956 16.9911 16.9911C16.6956 17.2867 16.5674 17.7102 16.6493 18.1201L17.3571 21.6616C17.7082 23.4178 18.5631 25.0154 19.8295 26.2819L24.2113 30.6637C25.0731 31.5254 26.2188 32 27.4375 32C28.6562 32 29.8019 31.5254 30.6637 30.6636ZM21.1715 19.8086C22.4421 20.0626 23.5979 20.681 24.5141 21.5972L28.8959 25.979C29.7001 26.7832 29.7001 28.0917 28.8959 28.8959C28.5064 29.2854 27.9884 29.5 27.4375 29.5C26.8866 29.5 26.3686 29.2854 25.9791 28.8959L21.5973 24.5141C20.6811 23.5979 20.0626 22.4421 19.8087 21.1716L19.4683 19.4683L21.1715 19.8086Z" fill="white" stroke="#814CEC" stroke-width="0.5"/>
</g>
<defs>
<clipPath id="clip0_204_16">
<rect width="32" height="32" fill="white"/>
</clipPath>
</defs>
</svg>
