<svg width="35" height="35" viewBox="0 0 35 35" fill="none" xmlns="http://www.w3.org/2000/svg">
<g clip-path="url(#clip0_204_19)">
<path d="M29.8744 5.12562C26.5691 1.82034 22.1743 0 17.5 0C12.8254 0 8.4309 1.82034 5.12562 5.12562C1.82034 8.4309 0 12.8254 0 17.5C0 22.1743 1.82034 26.5691 5.12562 29.8744C8.4309 33.1797 12.8254 35 17.5 35C22.1743 35 26.5691 33.1797 29.8744 29.8744C33.1797 26.5691 35 22.1743 35 17.5C35 12.8254 33.1797 8.4309 29.8744 5.12562ZM8.77323 30.2413C9.50516 26.027 13.157 22.9185 17.5 22.9185C21.8432 22.9185 25.4948 26.027 26.2268 30.2413C23.7421 31.9484 20.7359 32.9492 17.5 32.9492C14.2641 32.9492 11.2579 31.9484 8.77323 30.2413ZM11.9357 15.3034C11.9357 12.235 14.4318 9.73907 17.5 9.73907C20.5682 9.73907 23.0643 12.2353 23.0643 15.3034C23.0643 18.3716 20.5682 20.8678 17.5 20.8678C14.4318 20.8678 11.9357 18.3716 11.9357 15.3034ZM28.003 28.8188C27.4511 26.857 26.3549 25.0769 24.8185 23.6865C23.8758 22.8334 22.8029 22.1602 21.6494 21.6857C23.7343 20.3257 25.1154 17.9729 25.1154 15.3034C25.1154 11.1044 21.699 7.68829 17.5 7.68829C13.301 7.68829 9.88487 11.1044 9.88487 15.3034C9.88487 17.9729 11.2659 20.3257 13.3506 21.6857C12.1973 22.1602 11.1242 22.8331 10.1815 23.6863C8.64532 25.0767 7.5489 26.8567 6.99696 28.8186C3.95683 25.9953 2.05078 21.9663 2.05078 17.5C2.05078 8.98125 8.98125 2.05078 17.5 2.05078C26.0188 2.05078 32.9492 8.98125 32.9492 17.5C32.9492 21.9666 31.0432 25.9955 28.003 28.8188Z" fill="white"/>
</g>
<defs>
<clipPath id="clip0_204_19">
<rect width="35" height="35" fill="white"/>
</clipPath>
</defs>
</svg>
