<svg width="34" height="34" viewBox="0 0 34 34" fill="none" xmlns="http://www.w3.org/2000/svg">
<path d="M24.9688 3.1875C24.4054 3.18813 23.8652 3.41222 23.4668 3.8106C23.0685 4.20897 22.8444 4.74911 22.8438 5.3125V5.66625C20.575 8.06756 17.5054 9.71185 15.2985 10.6777C12.5882 11.8637 10.0941 12.4844 9.03125 12.4844H2.65625C2.02243 12.4851 1.41478 12.7372 0.966599 13.1853C0.518423 13.6335 0.266328 14.2412 0.265625 14.875V19.125C0.266328 19.7588 0.518423 20.3665 0.966599 20.8147C1.41478 21.2628 2.02243 21.5149 2.65625 21.5156H3.98438V27.0938C3.98438 27.3051 4.06833 27.5078 4.21777 27.6572C4.36722 27.8067 4.56991 27.8906 4.78125 27.8906H7.4375C7.61521 27.8906 7.78783 27.8312 7.92791 27.7219C8.06799 27.6125 8.16749 27.4595 8.2106 27.2871L9.64172 21.5628C10.8924 21.7275 13.0188 22.325 15.2985 23.3226C17.5054 24.2884 20.575 25.9327 22.8438 28.334V28.6875C22.8438 29.2511 23.0676 29.7916 23.4661 30.1901C23.8647 30.5886 24.4052 30.8125 24.9688 30.8125C25.5323 30.8125 26.0728 30.5886 26.4714 30.1901C26.8699 29.7916 27.0938 29.2511 27.0938 28.6875V5.3125C27.0931 4.74911 26.869 4.20897 26.4707 3.8106C26.0723 3.41222 25.5321 3.18813 24.9688 3.1875ZM8.23438 19.9219H5.57812V14.0781H8.23438V19.9219ZM1.85938 19.125V14.875C1.8596 14.6637 1.94363 14.4612 2.09303 14.3118C2.24242 14.1624 2.44498 14.0784 2.65625 14.0781H3.98438V19.9219H2.65625C2.44498 19.9216 2.24242 19.8376 2.09303 19.6882C1.94363 19.5388 1.8596 19.3363 1.85938 19.125ZM6.81534 26.2969H5.57812V21.5156H8.01065L6.81534 26.2969ZM9.82812 19.9835V14.0165C12.6291 13.6435 18.6558 11.5688 22.8438 7.87664V26.1234C18.6558 22.4312 12.6291 20.3565 9.82812 19.9835ZM25.5 28.6875C25.5 28.8284 25.444 28.9635 25.3444 29.0632C25.2448 29.1628 25.1096 29.2188 24.9688 29.2188C24.8279 29.2188 24.6927 29.1628 24.5931 29.0632C24.4935 28.9635 24.4375 28.8284 24.4375 28.6875V5.3125C24.4375 5.1716 24.4935 5.03648 24.5931 4.93685C24.6927 4.83722 24.8279 4.78125 24.9688 4.78125C25.1096 4.78125 25.2448 4.83722 25.3444 4.93685C25.444 5.03648 25.5 5.1716 25.5 5.3125V28.6875Z" fill="white"/>
<path d="M32.9375 16.2031H30.2812C30.0699 16.2031 29.8672 16.2871 29.7178 16.4365C29.5683 16.586 29.4844 16.7887 29.4844 17C29.4844 17.2113 29.5683 17.414 29.7178 17.5635C29.8672 17.7129 30.0699 17.7969 30.2812 17.7969H32.9375C33.1488 17.7969 33.3515 17.7129 33.501 17.5635C33.6504 17.414 33.7344 17.2113 33.7344 17C33.7344 16.7887 33.6504 16.586 33.501 16.4365C33.3515 16.2871 33.1488 16.2031 32.9375 16.2031Z" fill="white"/>
<path d="M28.9704 12.0419C29.0897 12.0418 29.2076 12.0149 29.3151 11.963L31.7092 10.8119C31.8997 10.7204 32.046 10.5569 32.1159 10.3574C32.1858 10.158 32.1737 9.93892 32.0821 9.74845C31.9905 9.55798 31.827 9.41168 31.6276 9.34176C31.4281 9.27183 31.2091 9.284 31.0186 9.37558L28.6247 10.5267C28.4619 10.6049 28.3304 10.7361 28.2519 10.8989C28.1735 11.0616 28.1526 11.2462 28.1928 11.4223C28.2331 11.5985 28.3319 11.7557 28.4733 11.8683C28.6146 11.9809 28.79 12.0421 28.9706 12.0419H28.9704Z" fill="white"/>
<path d="M31.7089 23.1881L29.3151 22.0371C29.1248 21.9472 28.9068 21.9362 28.7084 22.0064C28.5101 22.0767 28.3476 22.2226 28.2564 22.4122C28.1653 22.6018 28.1528 22.8198 28.2217 23.0186C28.2907 23.2174 28.4354 23.3809 28.6244 23.4734L31.0183 24.6244C31.2088 24.716 31.4278 24.7282 31.6273 24.6583C31.8267 24.5883 31.9902 24.442 32.0818 24.2516C32.1734 24.0611 32.1856 23.842 32.1156 23.6426C32.0457 23.4432 31.8994 23.2797 31.7089 23.1881Z" fill="white"/>
</svg>
